<?xml version="1.0" standalone="no"?>
<!DOCTYPE svg PUBLIC "-//W3C//DTD SVG 20010904//EN"
 "http://www.w3.org/TR/2001/REC-SVG-20010904/DTD/svg10.dtd">
<svg version="1.0" xmlns="http://www.w3.org/2000/svg"
 width="64.000000pt" height="64.000000pt" viewBox="0 0 64.000000 64.000000"
 preserveAspectRatio="xMidYMid meet">

<g transform="translate(0.000000,64.000000) scale(0.100000,-0.100000)"
fill="#000000" stroke="none">
<path d="M150 510 c0 -64 -2 -70 -21 -70 -12 0 -36 -15 -55 -34 -30 -30 -34
-40 -34 -86 0 -46 4 -56 34 -86 19 -19 43 -34 55 -34 19 0 21 -6 21 -53 0 -40
5 -58 18 -70 21 -20 43 -22 59 -6 8 8 17 7 32 -3 17 -10 25 -10 41 0 16 10 24
10 40 0 16 -10 24 -10 40 0 16 10 24 10 40 0 16 -10 24 -10 41 0 15 10 24 11
32 3 16 -16 42 -13 60 7 15 16 17 49 17 260 0 192 -3 242 -13 242 -7 0 -18 -5
-24 -11 -8 -8 -17 -7 -32 3 -17 10 -25 10 -41 0 -16 -10 -24 -10 -40 0 -16 10
-24 10 -40 0 -16 -10 -24 -10 -40 0 -16 10 -24 10 -40 0 -16 -10 -24 -10 -40
0 -16 10 -24 10 -41 0 -15 -10 -24 -11 -32 -3 -27 27 -37 11 -37 -59z m110 48
c16 -10 24 -10 40 0 16 10 24 10 40 0 16 -10 24 -10 40 0 16 10 24 10 40 0 16
-10 24 -10 41 0 16 10 24 10 35 1 8 -6 23 -9 34 -6 20 5 20 0 20 -228 0 -189
-3 -235 -14 -244 -11 -9 -19 -9 -35 1 -17 10 -25 10 -41 0 -16 -10 -24 -10
-40 0 -16 10 -24 10 -40 0 -16 -10 -24 -10 -40 0 -16 10 -24 10 -40 0 -16 -10
-24 -10 -40 0 -16 10 -24 10 -41 0 -33 -21 -49 1 -49 64 0 46 3 54 19 54 27 0
71 39 87 77 11 26 12 43 4 73 -11 42 -60 90 -91 90 -17 0 -19 7 -19 59 0 56 1
58 24 54 13 -3 27 0 30 6 9 14 12 14 36 -1z m-41 -142 c68 -36 68 -156 0 -192
-50 -25 -97 -18 -135 20 -37 37 -45 82 -23 129 23 51 101 72 158 43z"/>
<path d="M200 150 c0 -5 5 -10 10 -10 6 0 10 5 10 10 0 6 -4 10 -10 10 -5 0
-10 -4 -10 -10z"/>
<path d="M250 150 c0 -5 5 -10 10 -10 6 0 10 5 10 10 0 6 -4 10 -10 10 -5 0
-10 -4 -10 -10z"/>
<path d="M300 150 c0 -5 5 -10 10 -10 6 0 10 5 10 10 0 6 -4 10 -10 10 -5 0
-10 -4 -10 -10z"/>
<path d="M350 150 c0 -5 5 -10 10 -10 6 0 10 5 10 10 0 6 -4 10 -10 10 -5 0
-10 -4 -10 -10z"/>
<path d="M400 150 c0 -5 5 -10 10 -10 6 0 10 5 10 10 0 6 -4 10 -10 10 -5 0
-10 -4 -10 -10z"/>
<path d="M450 150 c0 -5 5 -10 10 -10 6 0 10 5 10 10 0 6 -4 10 -10 10 -5 0
-10 -4 -10 -10z"/>
<path d="M500 150 c0 -5 5 -10 10 -10 6 0 10 5 10 10 0 6 -4 10 -10 10 -5 0
-10 -4 -10 -10z"/>
<path d="M132 380 c-12 -12 -22 -25 -22 -30 0 -17 32 -40 56 -40 17 0 24 -5
24 -20 0 -22 -15 -27 -23 -7 -4 9 -8 8 -16 -3 -10 -13 -12 -13 -20 0 -6 8 -13
12 -16 8 -6 -6 33 -48 45 -48 9 0 50 40 50 49 0 16 -53 66 -58 53 -6 -19 -22
-14 -22 8 0 15 7 20 29 20 16 0 31 -6 34 -12 2 -7 7 -10 11 -7 7 7 -31 49 -44
49 -3 0 -16 -9 -28 -20z"/>
</g>
</svg>
